<svg xmlns="http://www.w3.org/2000/svg" xmlns:xlink="http://www.w3.org/1999/xlink" width="1080" zoomAndPan="magnify" viewBox="0 0 810 809.999993" height="1080" preserveAspectRatio="xMidYMid meet" version="1.0"><defs><clipPath id="027e48a7b4"><path d="M 23.3125 309.054688 L 786.8125 309.054688 L 786.8125 524.304688 L 23.3125 524.304688 Z M 23.3125 309.054688 " clip-rule="nonzero"/></clipPath></defs><g clip-path="url(#027e48a7b4)"><path fill="#7b9694" d="M 23.324219 493.210938 L 440.941406 493.210938 L 440.941406 524.164062 L 23.324219 524.164062 Z M 23.476562 462.121094 L 23.476562 312.59375 L 56.003906 312.59375 L 56.003906 375.683594 L 120.25 375.683594 L 120.25 312.59375 L 152.773438 312.59375 C 152.773438 363.765625 152.773438 414.9375 152.773438 466.109375 L 120.25 466.109375 L 120.25 406.558594 L 56.003906 406.558594 L 56.003906 466.109375 L 23.476562 466.109375 Z M 265.699219 466.109375 L 236.742188 466.109375 L 236.742188 405.777344 L 179.492188 312.59375 L 215.703125 312.59375 L 253.210938 375.074219 L 290.722656 312.59375 L 326.933594 312.59375 L 269.683594 405.777344 L 269.683594 466.109375 Z M 444.773438 387.34375 L 473.316406 387.34375 L 473.316406 441.09375 L 472.273438 443.769531 C 464.988281 451.792969 456.144531 457.808594 445.738281 461.820312 C 435.4375 465.789062 423.667969 467.773438 410.433594 467.773438 C 399.191406 467.773438 388.832031 465.910156 379.355469 462.183594 C 369.859375 458.449219 361.292969 452.855469 353.660156 445.398438 C 346.003906 437.921875 340.257812 429.453125 336.429688 419.996094 C 332.609375 410.554688 330.699219 400.167969 330.699219 388.832031 C 330.699219 377.503906 332.648438 367.074219 336.550781 357.546875 C 340.453125 348.015625 346.292969 339.449219 354.074219 331.84375 C 361.835938 324.265625 370.425781 318.570312 379.847656 314.765625 C 389.265625 310.957031 399.460938 309.054688 410.433594 309.054688 C 421.335938 309.054688 431.363281 310.660156 440.511719 313.867188 C 449.726562 317.101562 457.988281 321.933594 465.300781 328.375 L 467.964844 330.71875 L 450.300781 355.964844 L 446.976562 353.121094 C 444.296875 350.835938 441.636719 348.914062 438.992188 347.359375 C 436.398438 345.832031 433.789062 344.640625 431.160156 343.789062 C 425.816406 342.046875 419.535156 341.179688 412.308594 341.179688 C 405.414062 341.179688 399.121094 342.273438 393.433594 344.464844 C 387.769531 346.644531 382.625 349.9375 378.003906 354.335938 C 368.84375 363.054688 364.261719 374.585938 364.261719 388.933594 C 364.261719 396.1875 365.382812 402.679688 367.625 408.414062 C 369.84375 414.089844 373.167969 419.0625 377.601562 423.339844 C 382.09375 427.671875 387.027344 430.910156 392.414062 433.054688 C 397.796875 435.203125 403.699219 436.273438 410.121094 436.273438 C 422.25 436.273438 432.472656 433.875 440.789062 429.078125 L 440.789062 387.34375 Z M 616.285156 387.34375 L 644.828125 387.34375 L 644.828125 441.09375 L 643.785156 443.769531 C 636.5 451.792969 627.65625 457.808594 617.25 461.820312 C 606.949219 465.789062 595.179688 467.773438 581.945312 467.773438 C 570.703125 467.773438 560.34375 465.910156 550.867188 462.183594 C 541.371094 458.449219 532.804688 452.855469 525.171875 445.398438 C 517.515625 437.921875 511.769531 429.453125 507.941406 419.996094 C 504.121094 410.554688 502.210938 400.167969 502.210938 388.832031 C 502.210938 377.503906 504.160156 367.074219 508.0625 357.546875 C 511.964844 348.015625 517.804688 339.449219 525.585938 331.84375 C 533.347656 324.265625 541.9375 318.570312 551.359375 314.765625 C 560.777344 310.957031 570.972656 309.054688 581.945312 309.054688 C 592.847656 309.054688 602.875 310.660156 612.027344 313.867188 C 621.238281 317.101562 629.5 321.933594 636.8125 328.375 L 639.476562 330.71875 L 621.8125 355.964844 L 618.488281 353.121094 C 615.808594 350.835938 613.148438 348.914062 610.507812 347.359375 C 607.910156 345.832031 605.300781 344.640625 602.671875 343.789062 C 597.328125 342.046875 591.046875 341.179688 583.820312 341.179688 C 576.925781 341.179688 570.632812 342.273438 564.945312 344.464844 C 559.28125 346.644531 554.136719 349.9375 549.515625 354.335938 C 540.355469 363.054688 535.773438 374.585938 535.773438 388.933594 C 535.773438 396.1875 536.894531 402.679688 539.136719 408.414062 C 541.355469 414.089844 544.679688 419.0625 549.113281 423.339844 C 553.605469 427.671875 558.539062 430.910156 563.925781 433.054688 C 569.308594 435.203125 575.210938 436.273438 581.632812 436.273438 C 593.761719 436.273438 603.984375 433.875 612.300781 429.078125 L 612.300781 387.34375 Z M 786.441406 316.609375 L 786.441406 343.691406 L 706.675781 343.664062 L 706.675781 374.226562 L 776.394531 374.226562 L 776.394531 404.058594 L 706.675781 404.058594 L 706.675781 435.023438 L 786.800781 435.023438 L 786.800781 466.109375 L 674.152344 466.109375 L 674.152344 312.609375 L 786.441406 312.640625 Z M 452.835938 493.144531 L 458.09375 493.144531 L 458.09375 524.304688 L 452.835938 524.304688 Z M 491.710938 493.144531 L 496.96875 493.144531 L 496.96875 524.304688 L 491.265625 524.304688 L 473.621094 501.570312 L 473.621094 524.304688 L 468.363281 524.304688 L 468.363281 493.144531 L 473.621094 493.144531 L 491.710938 516.414062 Z M 519.113281 497.878906 C 517.648438 497.878906 516.445312 498.175781 515.503906 498.777344 C 514.5625 499.375 514.09375 500.28125 514.09375 501.492188 C 514.09375 502.703125 514.5625 503.628906 515.503906 504.273438 C 516.445312 504.914062 518.445312 505.605469 521.507812 506.347656 C 524.574219 507.085938 526.878906 508.128906 528.433594 509.46875 C 529.988281 510.808594 530.761719 512.78125 530.761719 515.390625 C 530.761719 518 529.78125 520.117188 527.8125 521.742188 C 525.847656 523.367188 523.269531 524.179688 520.078125 524.179688 C 515.402344 524.179688 511.257812 522.570312 507.636719 519.347656 L 510.800781 515.539062 C 513.820312 518.164062 516.957031 519.476562 520.207031 519.476562 C 521.828125 519.476562 523.117188 519.125 524.074219 518.425781 C 525.027344 517.730469 525.503906 516.800781 525.503906 515.648438 C 525.503906 514.492188 525.058594 513.59375 524.160156 512.953125 C 523.261719 512.3125 521.714844 511.726562 519.519531 511.199219 C 517.328125 510.671875 515.660156 510.1875 514.519531 509.746094 C 513.378906 509.304688 512.367188 508.726562 511.484375 508.015625 C 509.71875 506.675781 508.835938 504.621094 508.835938 501.855469 C 508.835938 499.089844 509.839844 496.957031 511.847656 495.460938 C 513.859375 493.964844 516.34375 493.214844 519.308594 493.214844 C 521.21875 493.214844 523.113281 493.53125 524.992188 494.15625 C 526.875 494.785156 528.496094 495.667969 529.867188 496.808594 L 527.171875 500.617188 C 526.289062 499.816406 525.09375 499.160156 523.582031 498.648438 C 522.070312 498.136719 520.582031 497.878906 519.113281 497.878906 Z M 555.050781 497.957031 L 555.050781 524.304688 L 549.792969 524.304688 L 549.792969 497.957031 L 540.347656 497.957031 L 540.347656 493.144531 L 564.496094 493.144531 L 564.496094 497.957031 Z M 575.328125 493.144531 L 580.585938 493.144531 L 580.585938 524.304688 L 575.328125 524.304688 Z M 606.441406 497.957031 L 606.441406 524.304688 L 601.183594 524.304688 L 601.183594 497.957031 L 591.738281 497.957031 L 591.738281 493.144531 L 615.886719 493.144531 L 615.886719 497.957031 Z M 634.644531 516.757812 C 636.046875 518.398438 637.949219 519.214844 640.347656 519.214844 C 642.742188 519.214844 644.644531 518.398438 646.046875 516.757812 C 647.453125 515.121094 648.152344 512.898438 648.152344 510.089844 L 648.152344 493.105469 L 653.328125 493.105469 L 653.328125 510.308594 C 653.328125 514.726562 652.113281 518.125 649.6875 520.511719 C 647.261719 522.894531 644.148438 524.085938 640.347656 524.085938 C 636.542969 524.085938 633.429688 522.894531 631.003906 520.511719 C 628.578125 518.125 627.363281 514.726562 627.363281 510.308594 L 627.363281 493.105469 L 632.539062 493.105469 L 632.539062 510.089844 C 632.539062 512.898438 633.242188 515.121094 634.644531 516.757812 Z M 679.34375 497.957031 L 679.34375 524.304688 L 674.085938 524.304688 L 674.085938 497.957031 L 664.640625 497.957031 L 664.640625 493.144531 L 688.789062 493.144531 L 688.789062 497.957031 Z M 700.484375 493.144531 L 705.742188 493.144531 L 705.742188 524.304688 L 700.484375 524.304688 Z M 743.070312 519.714844 C 740.046875 522.667969 736.308594 524.148438 731.855469 524.148438 C 727.40625 524.148438 723.667969 522.667969 720.640625 519.714844 C 717.617188 516.757812 716.105469 513.078125 716.105469 508.664062 C 716.105469 504.253906 717.617188 500.570312 720.640625 497.617188 C 723.667969 494.660156 727.40625 493.183594 731.855469 493.183594 C 736.308594 493.183594 740.046875 494.660156 743.070312 497.617188 C 746.097656 500.570312 747.609375 504.253906 747.609375 508.664062 C 747.609375 513.078125 746.097656 516.757812 743.070312 519.714844 Z M 739.371094 500.976562 C 737.328125 498.863281 734.824219 497.808594 731.855469 497.808594 C 728.890625 497.808594 726.382812 498.863281 724.34375 500.976562 C 722.304688 503.089844 721.285156 505.652344 721.285156 508.664062 C 721.285156 511.675781 722.304688 514.238281 724.34375 516.351562 C 726.382812 518.464844 728.890625 519.523438 731.855469 519.523438 C 734.824219 519.523438 737.328125 518.464844 739.371094 516.351562 C 741.410156 514.238281 742.429688 511.675781 742.429688 508.664062 C 742.429688 505.652344 741.410156 503.089844 739.371094 500.976562 Z M 781.199219 493.144531 L 786.457031 493.144531 L 786.457031 524.304688 L 780.753906 524.304688 L 763.109375 501.570312 L 763.109375 524.304688 L 757.851562 524.304688 L 757.851562 493.144531 L 763.109375 493.144531 L 781.199219 516.414062 Z M 781.199219 493.144531 " fill-opacity="1" fill-rule="evenodd"/></g></svg>